<svg xmlns="http://www.w3.org/2000/svg" width="8.109" height="15" viewBox="0 0 8.109 15">
  <path id="Path_1121" data-name="Path 1121" d="M947.8,264l-1.945,0a3.416,3.416,0,0,0-3.6,3.691v1.7h-1.956a.306.306,0,0,0-.305.306v2.466a.305.305,0,0,0,.305.306h1.956v6.222a.307.307,0,0,0,.306.306h2.551a.307.307,0,0,0,.307-.306v-6.222h2.286a.306.306,0,0,0,.306-.306V269.7a.307.307,0,0,0-.306-.306h-2.287v-1.443c0-.693.165-1.046,1.068-1.046H947.8a.306.306,0,0,0,.306-.306v-2.29A.306.306,0,0,0,947.8,264Zm0,0" transform="translate(-940 -264)" fill="#1ecad3"/>
</svg>
