<svg xmlns="http://www.w3.org/2000/svg" width="15" height="15" viewBox="0 0 15 15">
  <g id="Group_293" data-name="Group 293" transform="translate(-997 -5717)">
    <path id="Path_1123" data-name="Path 1123" d="M906.86,237H900.14a4.144,4.144,0,0,0-4.14,4.14v6.721a4.144,4.144,0,0,0,4.14,4.14h6.721a4.144,4.144,0,0,0,4.14-4.14V241.14a4.144,4.144,0,0,0-4.14-4.14Zm2.809,10.86a2.812,2.812,0,0,1-2.809,2.809H900.14a2.812,2.812,0,0,1-2.809-2.809V241.14a2.812,2.812,0,0,1,2.809-2.809h6.721a2.812,2.812,0,0,1,2.809,2.809Zm0,0" transform="translate(101 5480)" fill="#1ecad3"/>
    <path id="Path_1124" data-name="Path 1124" d="M929.672,267.727a2.945,2.945,0,1,0,2.945,2.945,2.948,2.948,0,0,0-2.945-2.945Zm0,4.876a1.931,1.931,0,1,1,1.931-1.931,1.933,1.933,0,0,1-1.931,1.931Zm0,0" transform="translate(74.828 5453.828)" fill="#1ecad3"/>
    <path id="Path_1125" data-name="Path 1125" d="M986.414,258.188a1.222,1.222,0,1,0,.865.358,1.229,1.229,0,0,0-.865-.358Zm0,0" transform="translate(21.961 5461.224)" fill="#1ecad3"/>
  </g>
</svg>
