<svg xmlns="http://www.w3.org/2000/svg" width="83.97" height="83.965" viewBox="0 0 83.97 83.965">
  <g id="dog_1_" data-name="dog (1)" transform="translate(0 -0.017)">
    <circle id="Ellipse_2" data-name="Ellipse 2" cx="3.28" cy="3.28" r="3.28" transform="translate(26.241 19.692)"/>
    <path id="Path_114" data-name="Path 114" d="M77.954,44.078c-2.521-2.52-4.48-3.307-4.48-12.577,0-11.451-8.288-19.871-8.641-20.224-.015-.014-.03-.027-.045-.041-2.947-9.681-14.1-13.243-22.8-10.113-8.741-3.137-19.862.457-22.8,10.113-.015.014-.031.026-.045.041C18.784,11.63,10.5,20.049,10.5,31.5c0,9.262-1.962,10.06-4.48,12.577C3.108,46.986,0,52.793,0,60.365,0,68.219,0,75.008,3.987,77.1c.78.986,1.936,8.652,10.108,5.382,3.1-1.24,4.28-.674,6.063.183a10.511,10.511,0,0,0,4.771,1.317c5.852,0,11.808-4.089,11.808-10.5,0-3.453-1.351-7.019-2.231-10.23a27.728,27.728,0,0,0,14.959,0C47.8,69.314,44.57,76.523,51.43,81.512a13.218,13.218,0,0,0,7.612,2.47,10.511,10.511,0,0,0,4.771-1.317c1.783-.857,2.961-1.423,6.063-.183,8.136,3.255,9.252-4.3,10.108-5.382,3.987-2.092,3.987-8.882,3.987-16.734C83.97,52.793,80.862,46.986,77.954,44.078ZM35.5,5.259A13.3,13.3,0,0,1,40.78,6.283c2.059,1.06,3.162-1.154,7.692-1.024,2.787.078,11.881,1.159,11.881,11.809,0,4.788,1.386,8.814,1.313,11.743-.223,8.976-3.2,12.38-4.443,14.6C54.02,45.123,51.108,45.8,50,45.062a11.122,11.122,0,0,1-5.365-8.809c3.049-1.16,5.221-4.149,5.221-6.72,0-3.311-3.458-5.9-7.872-5.9s-7.872,2.593-7.872,5.9c0,2.571,2.173,5.56,5.221,6.72a11.122,11.122,0,0,1-5.365,8.809c-1.107.738-4.02.061-7.222-1.646-1.24-2.22-4.22-5.628-4.443-14.6-.073-2.931,1.313-6.947,1.313-11.743,0-10.65,9.094-11.732,11.882-11.809Zm1.478,44.1a17.985,17.985,0,0,0,5.009-4.949,17.985,17.985,0,0,0,5.009,4.949A7.81,7.81,0,0,1,36.976,49.363ZM41.985,31.5A3.235,3.235,0,0,1,39.4,29.638c1.035-1,4.127-1.017,5.174,0A3.235,3.235,0,0,1,41.985,31.5ZM24.929,78.734c-2.675,0-5.29-4.121-12.783-1.124-1.428.571-1.918.407-1.861.407-.734-.474-1.106-4.153-3.819-5.544-1.351-1.437-1.217-9.919-1.217-12.107,0-5.977,2.413-10.51,4.48-12.577,3.2-3.2,6.017-5.178,6.017-16.288a21.575,21.575,0,0,1,2.03-8.831,33.107,33.107,0,0,0-.717,6.273c.159,6.382,1.631,11.705,4.376,15.823,2.868,4.3,5.565,13.461,7.177,15.3.18,4.309,2.879,9.6,2.879,13.421,0,3.58-3.915,5.248-6.56,5.248ZM41.985,59.053c-2.538,0-7.114-.716-9.091-2.143-.582-.469-.175.2-2.974-6.638q.316.073.631.131c6.624,8.042,16.252,8.033,22.868,0q.316-.058.631-.131c-1.077,2.63-2.034,5.155-2.6,6.291-.123.213-1.014.97-3.4,1.638a24.243,24.243,0,0,1-6.059.853ZM77.5,72.473c-2.721,1.4-3.083,5.068-3.815,5.542,0,0-.479.149-1.865-.405-7.506-3-10.108,1.124-12.783,1.124-2.646,0-6.56-1.668-6.56-5.248,0-3.827,2.7-9.1,2.879-13.421a5.429,5.429,0,0,0,.78-1.15c1.373-2.747,3.97-10.511,6.4-14.15,2.745-4.117,4.217-9.441,4.376-15.823a33.334,33.334,0,0,0-.725-6.321,21.634,21.634,0,0,1,2.038,8.88c0,11.136,2.844,13.115,6.017,16.288,2.066,2.067,4.48,6.6,4.48,12.577,0,2.2.124,10.681-1.217,12.107Z" transform="translate(0 0)"/>
    <circle id="Ellipse_3" data-name="Ellipse 3" cx="3.28" cy="3.28" r="3.28" transform="translate(51.169 19.692)"/>
  </g>
</svg>
