<svg xmlns="http://www.w3.org/2000/svg" width="15.698" height="15" viewBox="0 0 15.698 15">
  <path id="Path_1126" data-name="Path 1126" d="M813.7,155.2V161h-3.365v-5.415c0-1.36-.487-2.289-1.7-2.289a1.841,1.841,0,0,0-1.726,1.231,2.3,2.3,0,0,0-.112.82V161h-3.366s.045-9.171,0-10.121h3.365v1.435l-.022.033h.022v-.033a3.342,3.342,0,0,1,3.033-1.672c2.214,0,3.874,1.447,3.874,4.555ZM799.9,146a1.754,1.754,0,1,0-.045,3.5h.022a1.754,1.754,0,1,0,.022-3.5Zm-1.7,15h3.364V150.879H798.2Zm0,0" transform="translate(-798 -146)" fill="#1ecad3"/>
</svg>
