<svg xmlns="http://www.w3.org/2000/svg" width="78.226" height="74.878" viewBox="0 0 78.226 74.878">
  <g id="Group_324" data-name="Group 324" transform="translate(-4316.888 -3391.606)">
    <path id="Path_109" data-name="Path 109" d="M60.4,21.463a26.818,26.818,0,0,0-42.577,0A22.414,22.414,0,0,0,0,43.373v9.205a9.835,9.835,0,0,0,8.932,9.781A16.511,16.511,0,0,0,27.115,79.048a14,14,0,0,0,24,0A16.515,16.515,0,0,0,69.294,62.359a9.835,9.835,0,0,0,8.932-9.781V43.373A22.415,22.415,0,0,0,60.4,21.463ZM73.642,52.578a5.246,5.246,0,0,1-4.85,5.224c-.607-4.581-2.03-15.479-3.04-23.24A26.775,26.775,0,0,0,63.9,27.508a17.811,17.811,0,0,1,9.743,15.865ZM63.01,68.76a11.933,11.933,0,0,1-20.96-.918c.542-.319,1.147-.7,1.753-1.141,2.85-2.063,4.3-4.28,4.3-6.59,0-4.579-3.359-7.313-8.986-7.313s-8.986,2.734-8.986,7.313c0,2.31,1.445,4.527,4.3,6.59.606.439,1.211.822,1.753,1.141a11.935,11.935,0,0,1-22.506-7.159c.119-.716,2.813-21.4,3.352-25.539l0-.021a22.25,22.25,0,0,1,44.179,0l0,.021c.539,4.139,3.233,24.822,3.352,25.538A11.932,11.932,0,0,1,63.01,68.76Zm-23.9,12.49a9.409,9.409,0,0,1-7.258-3.42,16.551,16.551,0,0,0,7.258-5.93,16.551,16.551,0,0,0,7.256,5.933A9.408,9.408,0,0,1,39.113,81.25Zm-4.4-21.14c0-.817,0-2.729,4.4-2.729s4.4,1.913,4.4,2.729c0,.931-1.765,2.753-4.4,4.142C37.045,63.134,34.71,61.3,34.71,60.11ZM4.584,52.578V43.373a17.811,17.811,0,0,1,9.743-15.865,26.77,26.77,0,0,0-1.852,7.054c-1.011,7.764-2.434,18.666-3.04,23.24a5.246,5.246,0,0,1-4.85-5.224Z" transform="translate(4316.888 3380.651)" fill="#1c0d01"/>
    <path id="Path_110" data-name="Path 110" d="M175.273,190.273h4.584v8.368h-4.584Z" transform="translate(4168.394 3228.73)" fill="#1c0d01"/>
    <path id="Path_111" data-name="Path 111" d="M306.727,190.273h4.584v8.368h-4.584Z" transform="translate(4057.024 3228.73)" fill="#1c0d01"/>
    <path id="Path_112" data-name="Path 112" d="M132,339h4.584v4.584H132Z" transform="translate(4205.055 3102.727)" fill="#1c0d01"/>
    <path id="Path_113" data-name="Path 113" d="M350,339h4.584v4.584H350Z" transform="translate(4020.363 3102.727)" fill="#1c0d01"/>
  </g>
</svg>
