<svg xmlns="http://www.w3.org/2000/svg" viewBox="0 0 20.895 23.13">
  <path id="Path_1" data-name="Path 1" d="M25.663,23.929,23.2,9.639a.5.5,0,0,0-.5-.421H20.769V6.726a2.587,2.587,0,0,0-2.584-2.585h-5.35a2.586,2.586,0,0,0-2.583,2.585V9.219H8.319a.5.5,0,0,0-.5.421L5.356,23.929a2.367,2.367,0,0,0,2.393,2.842H23.27a2.367,2.367,0,0,0,2.393-2.842Zm-14.4-17.2a1.574,1.574,0,0,1,1.572-1.572h5.35a1.574,1.574,0,0,1,1.572,1.572V9.219h-8.5V6.726ZM24.38,25.278a1.42,1.42,0,0,1-1.111.481H7.749a1.357,1.357,0,0,1-1.4-1.656L8.746,10.231h1.506v2.352a1.652,1.652,0,1,0,1.009,0V10.231h8.5v2.352a1.651,1.651,0,1,0,1.01,0V10.231h1.5L24.664,24.1A1.417,1.417,0,0,1,24.38,25.278ZM10.757,13.506a.641.641,0,1,1-.641.641A.641.641,0,0,1,10.757,13.506Zm9.5,0a.641.641,0,1,1-.641.641A.642.642,0,0,1,20.262,13.506Z" transform="translate(-5.062 -3.891)" stroke-width="0.5"/>
</svg>
