<svg xmlns="http://www.w3.org/2000/svg" width="85.439" height="73.435" viewBox="0 0 85.439 73.435">
  <g id="Group_98" data-name="Group 98" transform="translate(-1238.985 -130.619)">
    <path id="Path_106" data-name="Path 106" d="M1310.593,176.755c.1,3.052.388,5.973.253,8.875-.325,7-3.778,12.006-10.158,14.953a38.709,38.709,0,0,1-14.449,3.09c-7.314.383-14.584.188-21.592-2.267-7.823-2.74-11.909-8.2-12.227-16.47-.1-2.655.212-5.327.344-8.173-.457.144-.953.307-1.452.458-6.719,2.032-12.119-1.679-12.076-8.7a43.272,43.272,0,0,1,1.62-10.424,88.463,88.463,0,0,1,3.434-9.228c2.68-7.007,8.1-10.5,15.215-11.691,2.083-.349,4.357.056,6.307-.594,1.883-.628,3.382-2.318,5.187-3.284,6.439-3.446,18.183-3.743,25.291,2.651a3.322,3.322,0,0,0,2.026.706,29.507,29.507,0,0,1,10.548,1.894,16.836,16.836,0,0,1,9.576,9.015c2.487,5.551,4.8,11.16,5.554,17.261a21.135,21.135,0,0,1,.115,4.388c-.578,6.629-5.618,9.959-12.048,8.029C1311.548,177.087,1311.045,176.905,1310.593,176.755Zm-30.978,22.9c0-2.47-.036-4.735.018-7a1.528,1.528,0,0,0-1.107-1.676,7.752,7.752,0,0,1-4.934-7.052,3.925,3.925,0,0,1,3.84-4.375q4.169-.14,8.346-.019a3.959,3.959,0,0,1,3.937,4.441,8.007,8.007,0,0,1-4.813,7.012c-.446.22-1.124.623-1.137.964-.1,2.51-.052,5.025-.052,7.713,5.154-.082,10.031-.6,14.69-2.511,4.868-2,7.8-5.537,8.345-10.8a23.761,23.761,0,0,0-.088-6.346c-1.268-7.474-2.638-14.934-4.165-22.359a43.133,43.133,0,0,0-5.8-15.051c-6.629-10.224-23.527-10.176-30.083.014a36.042,36.042,0,0,0-4.9,11.526c-1.373,6.009-2.48,12.079-3.664,18.13-.843,4.311-1.946,8.589-1.616,13.052.38,5.155,2.667,9.045,7.406,11.33C1268.731,199.008,1273.982,199.543,1279.615,199.652Zm21.137-58.6c.085.246.151.474.24.694,1.5,3.69,3.367,7.279,4.416,11.092,1.471,5.35,2.343,10.864,3.451,16.312.685,3.37,5.811,5.793,8.784,4.01a4.571,4.571,0,0,0,1.921-2.376,12.544,12.544,0,0,0,.456-4.475c-.511-6.148-2.849-11.757-5.412-17.276C1312.356,144.184,1306.278,140.679,1300.753,141.048Zm-38.106-.171c-1.094.139-1.9.193-2.679.349-4.746.944-8.992,2.813-11.084,7.5a90.739,90.739,0,0,0-4.6,12.32,36.77,36.77,0,0,0-.835,8.659,3.826,3.826,0,0,0,2.133,3.451c3.07,1.741,8.238-.608,8.9-4.059.209-1.092.39-2.188.59-3.282,1.259-6.855,2.436-13.734,5.272-20.174C1261,144.129,1261.776,142.665,1262.646,140.877Zm22.938,42.838h-7.837a3.919,3.919,0,0,0,7.837,0Z" transform="translate(0)" fill="#fff" stroke="#fff" stroke-width="0.5"/>
    <path id="Path_107" data-name="Path 107" d="M1404.334,217.275a2,2,0,0,1-3.976.073c-.192-1.225-.643-2.2-2.019-2.229-1.453-.026-1.951.985-2.164,2.262a1.845,1.845,0,0,1-2.142,1.69,1.972,1.972,0,0,1-1.844-2.2,6.076,6.076,0,0,1,12.145.407Z" transform="translate(-106.495 -55.789)" fill="#fff" stroke="#fff" stroke-width="0.5"/>
    <path id="Path_108" data-name="Path 108" d="M1331.675,211.007a6.113,6.113,0,0,1,6.051,5.488,2.1,2.1,0,0,1-1.611,2.544,1.921,1.921,0,0,1-2.374-1.745c-.242-1.217-.7-2.177-2.072-2.177s-1.877.925-2.069,2.168a1.873,1.873,0,0,1-2.22,1.773,2.02,2.02,0,0,1-1.767-2.414A6.105,6.105,0,0,1,1331.675,211.007Z" transform="translate(-60.137 -55.79)" fill="#fff" stroke="#fff" stroke-width="0.5"/>
  </g>
</svg>
