<svg xmlns="http://www.w3.org/2000/svg" width="18.462" height="15" viewBox="0 0 18.462 15">
  <path id="Path_1122" data-name="Path 1122" d="M18.462,65.776a7.891,7.891,0,0,1-2.181.6,3.764,3.764,0,0,0,1.665-2.092,7.564,7.564,0,0,1-2.4.916A3.785,3.785,0,0,0,9,67.786a3.9,3.9,0,0,0,.088.863,10.713,10.713,0,0,1-7.8-3.959,3.786,3.786,0,0,0,1.163,5.058,3.738,3.738,0,0,1-1.71-.466v.042a3.8,3.8,0,0,0,3.032,3.719,3.777,3.777,0,0,1-.992.125,3.346,3.346,0,0,1-.717-.065A3.821,3.821,0,0,0,5.6,75.739,7.6,7.6,0,0,1,.906,77.353,7.086,7.086,0,0,1,0,77.3,10.655,10.655,0,0,0,5.806,79,10.7,10.7,0,0,0,16.578,68.23c0-.167-.006-.329-.014-.489A7.55,7.55,0,0,0,18.462,65.776Z" transform="translate(0 -64)" fill="#1ecad3"/>
</svg>
